# xmcd
#
# Track frame offsets:
#	150
#	12688
#	29426
#	42612
#	53315
#	74550
#	93136
#	111689
#	127432
#	154165
#	165928
#	210156
#	233566
#	251774
#	277270
#	303950
#
# Disc length: 4403 seconds
#
# Revision: 1
# Processed by: cddbd v1.5.1PL2 Copyright (c) Steve Scherf et al.
# Submitted via: audiograbber 1.81.02
#
DISCID=e4113110
DTITLE=B.B.King - How Blue Can You Get (1)
DYEAR=1900
DGENRE=Blues
TTITLE0=Everyday I Have The Blues
TTITLE1=Sweet Little Angel
TTITLE2=Please Love Me
TTITLE3=You Upset Me Baby
TTITLE4=Gambler's Blues
TTITLE5=Buzz Me
TTITLE6=Baby Get Lost
TTITLE7=Blind Love
TTITLE8=Don't Answer The Door
TTITLE9=Please Accept My Love
TTITLE10=Worry, Worry
TTITLE11=How Blue Can You Get?
TTITLE12=Eyesight To The Blind
TTITLE13=Chains And Thingd*
TTITLE14=Sweet Sixteen*
TTITLE15=The Thrill Is Gone*
EXTD=
EXTT0=
EXTT1=
EXTT2=
EXTT3=
EXTT4=
EXTT5=
EXTT6=
EXTT7=
EXTT8=
EXTT9=
EXTT10=
EXTT11=
EXTT12=
EXTT13=
EXTT14=
EXTT15=
PLAYORDER=
